<svg id="euyhzYSZkIV1" xmlns="http://www.w3.org/2000/svg" xmlns:xlink="http://www.w3.org/1999/xlink" viewBox="0 0 200 500" shape-rendering="geometricPrecision" text-rendering="geometricPrecision"><ellipse id="euyhzYSZkIV2" rx="26.740933" ry="27.426597" transform="matrix(1.230769 0 0 1.5552 99.684744 84.869098)" fill="rgb(0,0,0)" stroke="none" stroke-width="0"/><rect id="euyhzYSZkIV3" width="116.563039" height="143.989637" rx="0" ry="0" transform="matrix(1 0 0 0.809674 41.403218 169.150713)" fill="rgb(0,0,0)" stroke="none" stroke-width="0"/><rect id="euyhzYSZkIV4" width="28.797927" height="168.673575" rx="0" ry="0" transform="matrix(1 0 0 0.784504 8.163794 169.150712)" fill="rgb(0,0,0)" stroke="none" stroke-width="0"/><rect id="euyhzYSZkIV5" width="28.797927" height="168.673575" rx="0" ry="0" transform="matrix(1 0 0 0.784504 162.46378 169.150713)" fill="rgb(0,0,0)" stroke="none" stroke-width="0"/><rect id="euyhzYSZkIV6" width="50.739204" height="159.074266" rx="0" ry="0" transform="matrix(1 0 0 1 41.403231 298.71048)" fill="rgb(0,0,0)" stroke="none" stroke-width="0"/><rect id="euyhzYSZkIV7" width="50.739204" height="159.074266" rx="0" ry="0" transform="matrix(1 0 0 1 107.227053 298.71048)" fill="rgb(0,0,0)" stroke="none" stroke-width="0"/><polygon id="euyhzYSZkIV8" points="0,-63.224756 60.130316,-19.537524 37.162579,51.149902 -37.162579,51.149902 -60.130316,-19.537524 0,-63.224756" transform="matrix(0.969254 0 0 0.928258 99.684741 186.211828)" fill="rgb(0,0,0)" stroke="none" stroke-width="0"/></svg>